<svg xmlns="http://www.w3.org/2000/svg" width="512" height="512" viewBox="0 0 512 512">
  <!-- RAMI_ICON_V015_FINAL: safe-zone tuned for Samsung/Android launcher masks -->
  <defs>
    <linearGradient id="bg" x1="0" y1="0" x2="0" y2="1"><stop offset="0" stop-color="#0f6945"/><stop offset="1" stop-color="#053c28"/></linearGradient>
    <linearGradient id="gold" x1="0" y1="0" x2="1" y2="1"><stop offset="0" stop-color="#fff0a0"/><stop offset=".5" stop-color="#e7b530"/><stop offset="1" stop-color="#8e5b08"/></linearGradient>
    <linearGradient id="banner" x1="0" y1="0" x2="0" y2="1"><stop offset="0" stop-color="#2f4f23"/><stop offset="1" stop-color="#102c19"/></linearGradient>
    <filter id="shadow"><feDropShadow dx="0" dy="5" stdDeviation="5" flood-color="#000" flood-opacity=".35"/></filter>
  </defs>

  <rect width="512" height="512" fill="#075333"/>
  <rect x="54" y="54" width="404" height="404" rx="104" fill="url(#bg)" stroke="url(#gold)" stroke-width="7"/>

  <g filter="url(#shadow)">
    <g transform="translate(124 156) rotate(-15 45 68)">
      <rect width="90" height="136" rx="13" fill="#fffdf8" stroke="#d8c27a" stroke-width="2"/>
      <text x="14" y="38" font-size="31" font-family="serif" font-weight="700" fill="#d32222">A</text>
      <text x="15" y="69" font-size="31" fill="#d32222">♥</text>
    </g>
    <g transform="translate(176 137) rotate(-6 45 68)">
      <rect width="90" height="136" rx="13" fill="#fffdf8" stroke="#d8c27a" stroke-width="2"/>
      <text x="13" y="38" font-size="31" font-family="serif" font-weight="700" fill="#111">K</text>
      <text x="14" y="69" font-size="31" fill="#111">♣</text>
    </g>
    <g transform="translate(228 136) rotate(6 45 68)">
      <rect width="90" height="136" rx="13" fill="#fffdf8" stroke="#d8c27a" stroke-width="2"/>
      <text x="13" y="38" font-size="31" font-family="serif" font-weight="700" fill="#d32222">Q</text>
      <text x="14" y="69" font-size="31" fill="#d32222">♦</text>
    </g>
    <g transform="translate(280 155) rotate(15 45 68)">
      <rect width="90" height="136" rx="13" fill="#fffdf8" stroke="#d8c27a" stroke-width="2"/>
      <text x="14" y="38" font-size="31" font-family="serif" font-weight="700" fill="#111">J</text>
      <text x="14" y="69" font-size="31" fill="#111">♠</text>
    </g>
  </g>

  <path d="M118 318 Q256 280 394 318 L376 400 Q256 432 136 400 Z" fill="url(#banner)" stroke="url(#gold)" stroke-width="7" filter="url(#shadow)"/>
  <text x="256" y="374" text-anchor="middle" font-size="66" font-family="serif" font-weight="900" fill="#f5d46a" stroke="#6f4608" stroke-width="1.6">RAMI</text>
</svg>
